<?xml version="1.0" encoding="UTF-8" standalone="no"?>
<svg width="10px" height="18px" viewBox="0 0 10 18" version="1.1" xmlns="http://www.w3.org/2000/svg" xmlns:xlink="http://www.w3.org/1999/xlink">
    <!-- Generator: Sketch 46.2 (44496) - http://www.bohemiancoding.com/sketch -->
    <title></title>
    <desc>Created with Sketch.</desc>
    <defs></defs>
    <g id="Welcome" stroke="none" stroke-width="1" fill="none" fill-rule="evenodd">
        <g id="Home-//-Desktop-HD" transform="translate(-1248.000000, -4463.000000)" fill="#000000">
            <g id="Footer" transform="translate(-2.000000, 3942.000000)">
                <g id="Derechos-&amp;-Redes">
                    <g transform="translate(154.000000, 507.000000)">
                        <path d="M1105.63281,14.6919643 L1105.63281,17.34375 L1104.0558,17.34375 C1103.47991,17.34375 1103.09152,17.4642845 1102.89062,17.7053571 C1102.68973,17.9464298 1102.58929,18.3080333 1102.58929,18.7901786 L1102.58929,20.6886161 L1105.53237,20.6886161 L1105.14062,23.6618304 L1102.58929,23.6618304 L1102.58929,31.2857143 L1099.51562,31.2857143 L1099.51562,23.6618304 L1096.95424,23.6618304 L1096.95424,20.6886161 L1099.51562,20.6886161 L1099.51562,18.4988839 C1099.51562,17.253342 1099.86384,16.2873918 1100.56027,15.6010045 C1101.2567,14.9146171 1102.18415,14.5714286 1103.34263,14.5714286 C1104.32701,14.5714286 1105.0904,14.6116067 1105.63281,14.6919643 Z" id=""></path>
                    </g>
                </g>
            </g>
        </g>
    </g>
</svg>