<?xml version="1.0" encoding="UTF-8"?>
<svg width="18px" height="22px" viewBox="0 0 18 22" version="1.1" xmlns="http://www.w3.org/2000/svg" xmlns:xlink="http://www.w3.org/1999/xlink">
    <!-- Generator: Sketch 47.1 (45422) - http://www.bohemiancoding.com/sketch -->
    <title>Shape</title>
    <desc>Created with Sketch.</desc>
    <defs></defs>
    <g id="Page-1" stroke="none" stroke-width="1" fill="none" fill-rule="evenodd">
        <g id="find-store" fill-rule="nonzero" fill="#000000">
            <path d="M14.6983556,15.0170646 C16.1643683,13.4760637 17,11.4186686 17,9.22842374 C17,4.68071075 13.4113777,1 9,1 C4.59831044,1 1,4.71523457 1,9.27306146 C1,11.483371 1.85131542,13.5558241 3.33154948,15.1263663 L8.99549754,20.604443 L14.6983556,15.0170646 Z M9,0 C13.9706446,0 18,4.13528087 18,9.22842374 C18,11.7436748 17.0173246,14.0303115 15.4228708,15.7063235 L9,22 L2.63633538,15.845169 C1.00769538,14.1188472 0,11.8198796 0,9.27306146 C0,4.17967206 4.02935538,0 9,0 Z M9.06017538,11.9111617 C10.4905579,11.9111617 11.6601754,10.7126624 11.6601754,9.22225838 C11.6601754,7.73185431 10.4905579,6.53335503 9.06017538,6.53335503 C7.62969069,6.53335503 6.46017538,7.73169749 6.46017538,9.22225838 C6.46017538,10.7128193 7.62969069,11.9111617 9.06017538,11.9111617 Z M9.06017538,12.9111617 C7.07196462,12.9111617 5.46017538,11.2598115 5.46017538,9.22225837 C5.46017538,7.18470527 7.07196462,5.53335502 9.06017538,5.53335502 C11.0483723,5.53335502 12.6601754,7.18495181 12.6601754,9.22225837 C12.6601754,11.2595648 11.0483723,12.9111617 9.06017538,12.9111617 Z" id="Shape"></path>
        </g>
    </g>
</svg>