<?xml version="1.0" encoding="utf-8"?>
<!-- Generator: Adobe Illustrator 16.0.3, SVG Export Plug-In . SVG Version: 6.00 Build 0)  -->
<!DOCTYPE svg PUBLIC "-//W3C//DTD SVG 1.1//EN" "http://www.w3.org/Graphics/SVG/1.1/DTD/svg11.dtd">
<svg version="1.1"
	 id="svg3416" xmlns:cc="http://creativecommons.org/ns#" xmlns:rdf="http://www.w3.org/1999/02/22-rdf-syntax-ns#" xmlns:dc="http://purl.org/dc/elements/1.1/" xmlns:svg="http://www.w3.org/2000/svg"
	 xmlns="http://www.w3.org/2000/svg" xmlns:xlink="http://www.w3.org/1999/xlink" x="0px" y="0px" width="54px" height="62px"
	 viewBox="0 0 54 62" enable-background="new 0 0 54 62" xml:space="preserve">
<rect x="-431.778" y="-301.979" fill="none" width="651.97" height="780.417"/>
<path id="path28" fill="#E83F76" d="M50.601,44.625V17.374L27,3.748L3.399,17.374v27.252L27,58.251L50.601,44.625z"/>
<path id="path32" fill="#FFFFFF" d="M27.001,0.191l-1.54,0.889L1.859,14.707l-1.54,0.889v1.778v27.252v1.778l1.54,0.889
	l23.602,13.626l1.54,0.89l1.54-0.89l23.601-13.626l1.539-0.889v-1.778V17.374v-1.778l-1.539-0.889L28.541,1.081L27.001,0.191z
	 M27.001,3.748l23.601,13.626v27.252L27.001,58.251L3.399,44.625V17.374L27.001,3.748z"/>
<path id="path44" fill="#F7E492" d="M13.091,28.48l0.714,0.64c-0.872,0.795-1.795,1.193-2.769,1.193
	c-1.04,0-1.928-0.367-2.661-1.101c-0.733-0.733-1.101-1.621-1.101-2.662c0-1.037,0.367-1.924,1.101-2.661
	c0.733-0.737,1.621-1.105,2.661-1.105c0.974,0,1.896,0.397,2.769,1.192l-0.714,0.65c-0.657-0.583-1.343-0.875-2.055-0.875
	c-0.77,0-1.43,0.273-1.978,0.819c-0.548,0.547-0.822,1.207-0.822,1.98c0,0.777,0.274,1.439,0.822,1.985
	c0.548,0.547,1.208,0.82,1.978,0.82C11.748,29.355,12.433,29.063,13.091,28.48"/>
<path id="path48" fill="#F4D969" d="M15.904,23.825v3.095h0.87c0.424,0,0.787-0.152,1.089-0.454
	c0.303-0.302,0.454-0.668,0.454-1.099c0-0.426-0.151-0.79-0.454-1.091c-0.302-0.301-0.665-0.451-1.089-0.451H15.904z M16.774,27.877
	h-0.87v2.358H14.95v-7.368h2.091c0.593,0.08,1.094,0.324,1.502,0.732c0.488,0.492,0.732,1.081,0.732,1.768
	c0,0.694-0.244,1.287-0.732,1.778c-0.338,0.338-0.596,0.528-0.773,0.571l1.635,2.519h-1.156L16.774,27.877z"/>
<path id="path52" fill="#F4D44E" d="M24.396,22.867h0.958v5.19c-0.083,0.593-0.327,1.093-0.732,1.501
	c-0.492,0.492-1.082,0.737-1.773,0.737c-0.69,0-1.28-0.244-1.771-0.734c-0.49-0.49-0.735-1.08-0.735-1.771v-4.923h0.958v4.923
	c0,0.424,0.151,0.787,0.454,1.089c0.304,0.302,0.667,0.454,1.094,0.454c0.43,0,0.796-0.151,1.097-0.452
	c0.301-0.3,0.451-0.664,0.451-1.091V22.867z"/>
<path id="path56" fill="#EFCB37" d="M30.705,22.867v0.953h-3.017v2.253h3.017v0.952h-3.017v2.253h3.017v0.957h-3.97v-7.368H30.705z"
	/>
<path id="path60" fill="#F2CA25" d="M31.971,30.235v-7.368h0.952v6.41h2.635v0.958H31.971z"/>
<path id="path64" fill="#FFCA1E" d="M38.497,23.82v6.415h-0.958V23.82h-1.718v-0.953h4.393v0.953H38.497z"/>
<path id="path68" fill="#E6AB07" d="M43.221,27.278l-2.547-4.412h1.096l1.926,3.335l1.93-3.335h1.1l-2.551,4.412v2.957h-0.953
	V27.278z"/>
<path id="path72" fill="#FFFFFF" d="M13.487,34.249v1.065H10.59v2.518h2.897v1.064H10.59v3.588H9.523v-8.235H13.487z"/>
<path id="path76" fill="#FFFFFF" d="M16.495,35.32v3.457h0.973c0.473,0,0.879-0.168,1.217-0.506s0.507-0.746,0.507-1.228
	c0-0.478-0.169-0.884-0.507-1.22s-0.744-0.504-1.217-0.504H16.495z M17.468,39.848h-0.973v2.636h-1.065v-8.235h2.336
	c0.662,0.09,1.222,0.362,1.678,0.819c0.546,0.549,0.818,1.207,0.818,1.976c0,0.776-0.272,1.438-0.818,1.985
	c-0.378,0.379-0.666,0.592-0.864,0.64l1.827,2.815h-1.292L17.468,39.848z"/>
<path id="path80" fill="#FFFFFF" d="M26.42,34.249v1.065h-3.371v2.518h3.371v1.064h-3.371v2.518h3.371v1.07h-4.438v-8.235H26.42z"/>
<path id="path84" fill="#FFFFFF" d="M32.799,34.249v1.065h-3.371v2.518h3.371v1.064h-3.371v2.518h3.371v1.07h-4.438v-8.235H32.799z"
	/>
<path id="path88" fill="#FFFFFF" d="M37.755,34.152c0.313-0.006,0.609,0.063,0.887,0.197c0.352,0.17,0.659,0.401,0.913,0.701
	c0.094,0.109,0.189,0.219,0.283,0.329c0.052,0.062,0.063,0.062,0.115,0.001c0.145-0.171,0.282-0.348,0.443-0.503
	c0.215-0.208,0.455-0.388,0.725-0.517c0.34-0.162,0.701-0.234,1.082-0.201c0.529,0.046,0.989,0.252,1.396,0.576
	c0.287,0.229,0.497,0.521,0.647,0.857c0.157,0.354,0.224,0.725,0.229,1.105c0.005,0.302-0.058,0.597-0.151,0.885
	c-0.076,0.23-0.171,0.453-0.294,0.66c-0.167,0.283-0.356,0.551-0.566,0.804c-0.262,0.317-0.546,0.61-0.841,0.896
	c-0.252,0.246-0.505,0.488-0.76,0.729c-0.162,0.153-0.33,0.302-0.493,0.455c-0.229,0.214-0.455,0.431-0.683,0.644
	c-0.23,0.217-0.461,0.432-0.692,0.647c-0.097,0.089-0.11,0.086-0.207-0.005c-0.398-0.372-0.796-0.743-1.193-1.116
	c-0.349-0.328-0.696-0.655-1.045-0.983c-0.379-0.358-0.754-0.72-1.097-1.113c-0.3-0.344-0.57-0.713-0.78-1.118
	c-0.213-0.413-0.349-0.854-0.358-1.323c-0.011-0.459,0.086-0.9,0.299-1.311c0.143-0.275,0.332-0.512,0.569-0.709
	c0.182-0.148,0.384-0.266,0.598-0.365C37.091,34.232,37.415,34.156,37.755,34.152"/>
</svg>
