<?xml version="1.0" encoding="UTF-8"?>
<svg width="64px" height="55px" viewBox="0 0 64 55" version="1.1" xmlns="http://www.w3.org/2000/svg" xmlns:xlink="http://www.w3.org/1999/xlink">
    <!-- Generator: Sketch 46.1 (44463) - http://www.bohemiancoding.com/sketch -->
    <title>Page 1</title>
    <desc>Created with Sketch.</desc>
    <defs></defs>
    <g id="Welcome" stroke="none" stroke-width="1" fill="none" fill-rule="evenodd">
        <g id="Home-//-Desktop-HD" transform="translate(-1153.000000, -3784.000000)">
            <g id="Contenido-Destacado" transform="translate(0.000000, 3718.000000)">
                <g id="Icon-04-Copy" transform="translate(1135.000000, 66.000000)">
                    <g id="Page-1" transform="translate(18.000000, 0.000000)">
                        <rect id="Rectangle-5" stroke="#FFFFFF" x="0.5" y="0.5" width="63" height="54"></rect>
                        <path d="M53,34.9565217 C53,36.6608696 51.8,38 50.2727273,38 L49.1818182,38 L47,38 L47,24 L48.0909091,24 L49.1818182,24 L50.2727273,24 C51.8,24 53,25.3391304 53,27.0434783 L53,34.9565217 Z M32.8775603,50.0886469 L32.8775603,50.0886469 C30.802625,50.0886469 29.1311493,48.4090607 29.1311493,46.3227586 C29.1311493,44.2370359 30.802625,42.5568704 32.8775603,42.5568704 C34.9524956,42.5568704 36.6239712,44.2370359 36.6239712,46.3227586 C36.6239712,48.3505446 34.9524956,50.0886469 32.8775603,50.0886469 L32.8775603,50.0886469 Z M16,24 L16,38 L12.7272727,38 C11.2,38 10,36.6608696 10,34.9565217 L10,27.0434783 C10,25.3391304 11.2,24 12.7272727,24 L13.8181818,24 L14.9090909,24 L16,24 Z M49,21.9241379 L49.0143561,20.5724138 C49.0143561,10.9075862 41.1476682,3 31.5328273,3 C21.9179864,3 14.0512984,10.9075862 14.0512984,20.5724138 L14.0512984,21.9241379 L12.7065655,21.9241379 C10.0843361,21.9241379 8,24.0193103 8,26.6551724 L8,35.4413793 C8,38.0772414 10.0843361,40.1724138 12.7065655,40.1724138 L18.0854974,40.1724138 L18.0854974,21.9241379 L16,22 L16,20.6482759 C16,11.7268966 23.1247623,5 32,5 C40.8752377,5 47,11.6510345 47,20.5724138 L47,21.9241379 L44.9801572,21.9241379 L44.9801572,40.1724138 L48,40 C47.6638168,43.0413793 46.1601225,45 43,45 L39,45 C38.6638168,42.1613793 35.7014996,40.5103448 32.743087,40.5103448 C29.5829645,40.5103448 27.0279718,43.0786207 27.0279718,46.2551724 C27.0279718,49.4324 29.5829645,52 32.743087,52 C35.6342629,52 38.6638168,49.770331 39,46.9310345 L42.8285844,46.9310345 C46.6610734,46.9310345 49.8884326,43.9572414 50.2246158,40.1724138 C52.9140818,40.1724138 54.9984179,38.0772414 54.9984179,35.4413793 L54.9984179,26.6551724 C55.0656546,24.0868966 52.9813184,21.9241379 50.3590891,21.9241379 L49,21.9241379 Z" id="Fill-1" fill="#000000"></path>
                    </g>
                </g>
            </g>
        </g>
    </g>
</svg>