<?xml version="1.0" encoding="UTF-8" standalone="no"?>
<svg width="16px" height="17px" viewBox="0 0 16 17" version="1.1" xmlns="http://www.w3.org/2000/svg" xmlns:xlink="http://www.w3.org/1999/xlink">
    <!-- Generator: Sketch 46.2 (44496) - http://www.bohemiancoding.com/sketch -->
    <title></title>
    <desc>Created with Sketch.</desc>
    <defs></defs>
    <g id="Welcome" stroke="none" stroke-width="1" fill="none" fill-rule="evenodd">
        <g id="Home-//-Desktop-HD" transform="translate(-1217.000000, -4464.000000)" fill="#000000">
            <g id="Footer" transform="translate(-2.000000, 3942.000000)">
                <g id="Derechos-&amp;-Redes">
                    <g transform="translate(154.000000, 507.000000)">
                        <path d="M1075.28571,23.5714286 C1075.28571,22.8616036 1075.0346,22.2555829 1074.53237,21.7533482 C1074.03013,21.2511136 1073.42411,21 1072.71429,21 C1072.00446,21 1071.39844,21.2511136 1070.89621,21.7533482 C1070.39397,22.2555829 1070.14286,22.8616036 1070.14286,23.5714286 C1070.14286,24.2812535 1070.39397,24.8872743 1070.89621,25.3895089 C1071.39844,25.8917436 1072.00446,26.1428571 1072.71429,26.1428571 C1073.42411,26.1428571 1074.03013,25.8917436 1074.53237,25.3895089 C1075.0346,24.8872743 1075.28571,24.2812535 1075.28571,23.5714286 Z M1076.67188,23.5714286 C1076.67188,24.6696483 1076.28683,25.6037908 1075.51674,26.3738839 C1074.74665,27.1439771 1073.81251,27.5290179 1072.71429,27.5290179 C1071.61607,27.5290179 1070.68192,27.1439771 1069.91183,26.3738839 C1069.14174,25.6037908 1068.7567,24.6696483 1068.7567,23.5714286 C1068.7567,22.4732088 1069.14174,21.5390664 1069.91183,20.7689732 C1070.68192,19.9988801 1071.61607,19.6138393 1072.71429,19.6138393 C1073.81251,19.6138393 1074.74665,19.9988801 1075.51674,20.7689732 C1076.28683,21.5390664 1076.67188,22.4732088 1076.67188,23.5714286 Z M1077.7567,19.453125 C1077.7567,19.7075906 1077.6663,19.9252223 1077.48549,20.1060268 C1077.30469,20.2868313 1077.08705,20.3772321 1076.83259,20.3772321 C1076.57812,20.3772321 1076.36049,20.2868313 1076.17969,20.1060268 C1075.99888,19.9252223 1075.90848,19.7075906 1075.90848,19.453125 C1075.90848,19.1986594 1075.99888,18.9810277 1076.17969,18.8002232 C1076.36049,18.6194187 1076.57812,18.5290179 1076.83259,18.5290179 C1077.08705,18.5290179 1077.30469,18.6194187 1077.48549,18.8002232 C1077.6663,18.9810277 1077.7567,19.1986594 1077.7567,19.453125 Z M1072.71429,17.2433036 C1072.66741,17.2433036 1072.41127,17.2416295 1071.94587,17.2382812 C1071.48047,17.234933 1071.12723,17.234933 1070.88616,17.2382812 C1070.64509,17.2416295 1070.32199,17.251674 1069.91685,17.2684152 C1069.51172,17.2851563 1069.16685,17.3186381 1068.88225,17.3688616 C1068.59765,17.4190851 1068.35826,17.4810264 1068.16406,17.5546875 C1067.82924,17.6886167 1067.5346,17.8828112 1067.28013,18.1372768 C1067.02567,18.3917423 1066.83147,18.6863823 1066.69754,19.0212054 C1066.62388,19.2154028 1066.56194,19.4547977 1066.51172,19.7393973 C1066.4615,20.023997 1066.42801,20.3688596 1066.41127,20.7739955 C1066.39453,21.1791315 1066.38449,21.5022309 1066.38114,21.7433036 C1066.37779,21.9843762 1066.37779,22.3376093 1066.38114,22.8030134 C1066.38449,23.2684175 1066.38616,23.5245533 1066.38616,23.5714286 C1066.38616,23.6183038 1066.38449,23.8744396 1066.38114,24.3398438 C1066.37779,24.8052479 1066.37779,25.1584809 1066.38114,25.3995536 C1066.38449,25.6406262 1066.39453,25.9637257 1066.41127,26.3688616 C1066.42801,26.7739976 1066.4615,27.1188602 1066.51172,27.4034598 C1066.56194,27.6880595 1066.62388,27.9274544 1066.69754,28.1216518 C1066.83147,28.4564749 1067.02567,28.7511148 1067.28013,29.0055804 C1067.5346,29.2600459 1067.82924,29.4542404 1068.16406,29.5881696 C1068.35826,29.6618307 1068.59765,29.7237721 1068.88225,29.7739955 C1069.16685,29.824219 1069.51172,29.8577008 1069.91685,29.874442 C1070.32199,29.8911831 1070.64509,29.9012277 1070.88616,29.9045759 C1071.12723,29.9079241 1071.48047,29.9079241 1071.94587,29.9045759 C1072.41127,29.9012277 1072.66741,29.8995536 1072.71429,29.8995536 C1072.76116,29.8995536 1073.0173,29.9012277 1073.4827,29.9045759 C1073.94811,29.9079241 1074.30134,29.9079241 1074.54241,29.9045759 C1074.78348,29.9012277 1075.10658,29.8911831 1075.51172,29.874442 C1075.91685,29.8577008 1076.26172,29.824219 1076.54632,29.7739955 C1076.83092,29.7237721 1077.07031,29.6618307 1077.26451,29.5881696 C1077.59933,29.4542404 1077.89397,29.2600459 1078.14844,29.0055804 C1078.4029,28.7511148 1078.5971,28.4564749 1078.73103,28.1216518 C1078.80469,27.9274544 1078.86663,27.6880595 1078.91685,27.4034598 C1078.96708,27.1188602 1079.00056,26.7739976 1079.0173,26.3688616 C1079.03404,25.9637257 1079.04408,25.6406262 1079.04743,25.3995536 C1079.05078,25.1584809 1079.05078,24.8052479 1079.04743,24.3398438 C1079.04408,23.8744396 1079.04241,23.6183038 1079.04241,23.5714286 C1079.04241,23.5245533 1079.04408,23.2684175 1079.04743,22.8030134 C1079.05078,22.3376093 1079.05078,21.9843762 1079.04743,21.7433036 C1079.04408,21.5022309 1079.03404,21.1791315 1079.0173,20.7739955 C1079.00056,20.3688596 1078.96708,20.023997 1078.91685,19.7393973 C1078.86663,19.4547977 1078.80469,19.2154028 1078.73103,19.0212054 C1078.5971,18.6863823 1078.4029,18.3917423 1078.14844,18.1372768 C1077.89397,17.8828112 1077.59933,17.6886167 1077.26451,17.5546875 C1077.07031,17.4810264 1076.83092,17.4190851 1076.54632,17.3688616 C1076.26172,17.3186381 1075.91685,17.2851563 1075.51172,17.2684152 C1075.10658,17.251674 1074.78348,17.2416295 1074.54241,17.2382812 C1074.30134,17.234933 1073.94811,17.234933 1073.4827,17.2382812 C1073.0173,17.2416295 1072.76116,17.2433036 1072.71429,17.2433036 Z M1080.42857,23.5714286 C1080.42857,25.1049184 1080.41183,26.1662917 1080.37835,26.7555804 C1080.31138,28.1484445 1079.89621,29.2265587 1079.13281,29.9899554 C1078.36942,30.753352 1077.2913,31.1685265 1075.89844,31.2354911 C1075.30915,31.2689734 1074.24778,31.2857143 1072.71429,31.2857143 C1071.1808,31.2857143 1070.11942,31.2689734 1069.53013,31.2354911 C1068.13727,31.1685265 1067.05916,30.753352 1066.29576,29.9899554 C1065.53236,29.2265587 1065.11719,28.1484445 1065.05022,26.7555804 C1065.01674,26.1662917 1065,25.1049184 1065,23.5714286 C1065,22.0379388 1065.01674,20.9765654 1065.05022,20.3872768 C1065.11719,18.9944127 1065.53236,17.9162985 1066.29576,17.1529018 C1067.05916,16.3895051 1068.13727,15.9743307 1069.53013,15.9073661 C1070.11942,15.8738838 1071.1808,15.8571429 1072.71429,15.8571429 C1074.24778,15.8571429 1075.30915,15.8738838 1075.89844,15.9073661 C1077.2913,15.9743307 1078.36942,16.3895051 1079.13281,17.1529018 C1079.89621,17.9162985 1080.31138,18.9944127 1080.37835,20.3872768 C1080.41183,20.9765654 1080.42857,22.0379388 1080.42857,23.5714286 Z" id=""></path>
                    </g>
                </g>
            </g>
        </g>
    </g>
</svg>