<?xml version="1.0" encoding="UTF-8"?>
<svg width="16px" height="18px" viewBox="0 0 16 18" version="1.1" xmlns="http://www.w3.org/2000/svg" xmlns:xlink="http://www.w3.org/1999/xlink">
    <!-- Generator: Sketch 50.2 (55047) - http://www.bohemiancoding.com/sketch -->
    <title>Group</title>
    <desc>Created with Sketch.</desc>
    <defs></defs>
    <g id="Welcome" stroke="none" stroke-width="1" fill="none" fill-rule="evenodd">
        <g id="Resultados-//-Desktop-HD-//-Badges-v1" transform="translate(-810.000000, -618.000000)" fill="#E5001A" fill-rule="nonzero">
            <g id="Group" transform="translate(810.000000, 618.000000)">
                <path d="M15.952434,8.69044586 C15.952434,7.68152866 15.0962467,6.87898089 14.0735786,6.87898089 C13.7168339,6.87898089 13.4076551,6.97070064 13.1222594,7.13121019 C12.8130806,6.53503185 12.1709402,6.12229299 11.4336678,6.12229299 C11.0769231,6.12229299 10.7677443,6.21401274 10.4823486,6.37452229 C10.1731698,5.77834395 9.53102936,5.3656051 8.79375697,5.3656051 C8.53214418,5.3656051 8.2705314,5.41146497 8.0327016,5.52611465 L8.0327016,1.81146497 C8.0327016,1.32993631 7.84243776,0.87133758 7.48569305,0.527388535 C7.12894835,0.18343949 6.65328874,0 6.15384615,0 C5.10739502,0 4.27499071,0.825477707 4.27499071,1.8343949 L4.27499071,10.2496815 L3.27610554,9.2866242 C2.63396507,8.66751592 1.61129692,8.57579618 0.850241546,9.05732484 C0.39836492,9.35541401 0.112969156,9.81401274 0.0178372352,10.3184713 C-0.0535117057,10.8229299 0.0891861761,11.3503185 0.445930881,11.7630573 L4.06094389,15.9592357 C5.17874396,17.266242 6.8197696,18 8.55592716,18 L10.8153103,18 C12.1947232,18 13.5027871,17.4726115 14.4778893,16.5324841 C15.4529915,15.5923567 16,14.3312102 16,13.0012739 L15.952434,8.69044586 Z M13.621702,15.7528662 C12.8606466,16.4866242 11.8379784,16.8993631 10.7677443,16.8993631 L8.5083612,16.8993631 C7.10516537,16.8993631 5.79710145,16.3031847 4.8933482,15.2484076 L1.30211817,11.0522293 C1.15942029,10.8917197 1.11185433,10.6853503 1.13563731,10.4789809 C1.15942029,10.2726115 1.27833519,10.089172 1.46859903,9.97452229 C1.58751394,9.88280255 1.7539948,9.83694268 1.89669268,9.83694268 C2.08695652,9.83694268 2.30100334,9.90573248 2.44370123,10.0433121 L3.89446302,11.4420382 C4.15607581,11.6942675 4.51282051,11.7630573 4.84578224,11.6254777 C5.17874396,11.4878981 5.39279078,11.1898089 5.39279078,10.8458599 L5.39279078,1.81146497 C5.39279078,1.42165605 5.72575251,1.07770701 6.13006317,1.07770701 C6.13006317,1.07770701 6.13006317,1.07770701 6.13006317,1.07770701 C6.32032702,1.07770701 6.51059086,1.14649682 6.65328874,1.28407643 C6.79598662,1.42165605 6.86733556,1.60509554 6.86733556,1.78853503 L6.86733556,8.02547771 C6.86733556,8.32356688 7.12894835,8.57579618 7.43812709,8.57579618 C7.74730583,8.57579618 8.00891862,8.32356688 8.00891862,8.02547771 L8.00891862,7.17707006 C8.00891862,6.78726115 8.34188034,6.4433121 8.76997399,6.4433121 C9.17428465,6.4433121 9.53102936,6.76433121 9.53102936,7.17707006 L9.53102936,8.78216561 C9.53102936,9.08025478 9.79264214,9.33248408 10.1018209,9.33248408 C10.4109996,9.33248408 10.6726124,9.08025478 10.6726124,8.78216561 L10.6726124,7.93375796 C10.6726124,7.54394904 11.0055741,7.2 11.4336678,7.2 C11.8379784,7.2 12.1947232,7.52101911 12.1947232,7.93375796 L12.1947232,9.5388535 C12.1947232,9.83694268 12.4563359,10.089172 12.7655147,10.089172 C13.0746934,10.089172 13.3363062,9.83694268 13.3363062,9.5388535 L13.3363062,8.75923567 C13.3363062,8.73630573 13.3363062,8.7133758 13.3363062,8.69044586 C13.3363062,8.30063694 13.6692679,7.97961783 14.0735786,7.97961783 C14.4778893,7.97961783 14.810851,8.30063694 14.810851,8.69044586 L14.810851,13.0012739 C14.810851,14.056051 14.3827573,15.0191083 13.621702,15.7528662 Z" id="Shape"></path>
            </g>
        </g>
    </g>
</svg>