<?xml version="1.0" encoding="UTF-8"?>
<svg width="26px" height="20px" viewBox="0 0 26 20" version="1.1" xmlns="http://www.w3.org/2000/svg" xmlns:xlink="http://www.w3.org/1999/xlink">
    <!-- Generator: Sketch 54.1 (76490) - https://sketchapp.com -->
    <title>my-blog</title>
    <desc>Created with Sketch.</desc>
    <g id="Page-1" stroke="none" stroke-width="1" fill="none" fill-rule="evenodd">
        <g id="my-blog" transform="translate(0.000000, -0.500000)" fill="#000000" fill-rule="nonzero">
            <path d="M2.24274509,0.580963684 C1.28556327,0.580963684 0.497120039,1.3694068 0.497120039,2.32658873 L0.497120039,18.2153392 C0.497120039,19.1725211 1.28556327,19.9609642 2.24274509,19.9609642 L18.1314955,19.9609642 C19.0886774,19.9609642 19.8771206,19.1725211 19.8771206,18.2153392 L19.8771206,13.0764328 L25.407902,7.55455762 C25.6274607,7.3324752 25.6274607,6.97507753 25.407902,6.7529951 L22.8250894,4.17018253 C22.7043548,4.04647714 22.534011,3.98423614 22.3619644,4.00096378 C22.2331759,4.01719229 22.1137828,4.07688887 22.0235269,4.17018253 L19.8771206,6.32549509 L19.8771206,2.32658873 C19.8771206,1.3694068 19.0886774,0.580963684 18.1314955,0.580963684 L2.24274509,0.580963684 Z M2.24274509,1.72096371 L18.1314955,1.72096371 C18.4782513,1.72096371 18.7371205,1.97983293 18.7371205,2.32658873 L18.7371205,7.46549512 L13.7763391,12.4351828 C13.6691701,12.5411542 13.6083282,12.6852534 13.6071204,12.835964 L13.6071204,15.4009641 C13.6071519,15.7157534 13.8623311,15.9709326 14.1771204,15.9709641 L16.7421205,15.9709641 C16.8928311,15.9697563 17.0369303,15.9089144 17.1429017,15.8017453 L18.7371205,14.2075266 L18.7371205,18.2153392 C18.7371205,18.562095 18.4782513,18.8209642 18.1314955,18.8209642 L2.24274509,18.8209642 C1.89598928,18.8209642 1.63712007,18.562095 1.63712007,18.2153392 L1.63712007,2.32658873 C1.63712007,1.97983293 1.89598928,1.72096371 2.24274509,1.72096371 Z M4.43368265,4.57096379 C4.23001219,4.58047002 4.04688941,4.69792508 3.95331097,4.87907446 C3.85973254,5.06022384 3.86991918,5.27753899 3.98003281,5.4491403 C4.09014644,5.62074161 4.28345351,5.72055152 4.48712015,5.71096382 L15.8871205,5.71096382 C16.0926825,5.71387025 16.2838856,5.605869 16.3875148,5.4283157 C16.4911439,5.25076239 16.4911439,5.03116523 16.3875148,4.85361192 C16.2838856,4.67605861 16.0926825,4.56805736 15.8871205,4.57096379 L4.48712015,4.57096379 C4.46931744,4.57012846 4.45148535,4.57012846 4.43368265,4.57096379 Z M22.4243081,5.37252631 L24.2055582,7.15377636 L23.1635269,8.19580764 L21.3822769,6.41455759 L22.4243081,5.37252631 Z M20.5807143,7.21612011 L22.3619644,8.99737016 L16.510558,14.8309641 L14.7471204,14.8309641 L14.7471204,13.0675265 L20.5807143,7.21612011 Z M4.43368265,7.99096388 C4.23001219,8.00047011 4.04688941,8.11792517 3.95331097,8.29907455 C3.85973254,8.48022393 3.86991918,8.69753908 3.98003281,8.86914039 C4.09014644,9.04074171 4.28345351,9.14055161 4.48712015,9.13096392 L15.8871205,9.13096392 C16.0926825,9.13387035 16.2838856,9.0258691 16.3875148,8.84831579 C16.4911439,8.67076248 16.4911439,8.45116532 16.3875148,8.27361201 C16.2838856,8.0960587 16.0926825,7.98805745 15.8871205,7.99096388 L4.48712015,7.99096388 C4.46931744,7.99012855 4.45148535,7.99012855 4.43368265,7.99096388 Z M4.43368265,11.410964 C4.23001219,11.4204702 4.04688941,11.5379253 3.95331097,11.7190746 C3.85973254,11.900224 3.86991918,12.1175392 3.98003281,12.2891405 C4.09014644,12.4607418 4.28345351,12.5605517 4.48712015,12.550964 L11.9416516,12.550964 C12.1472136,12.5538704 12.3384167,12.4458692 12.4420459,12.2683159 C12.5456751,12.0907626 12.5456751,11.8711654 12.4420459,11.6936121 C12.3384167,11.5160588 12.1472136,11.4080575 11.9416516,11.410964 L4.48712015,11.410964 C4.46931744,11.4101286 4.45148535,11.4101286 4.43368265,11.410964 Z M4.43368265,14.8309641 C4.23001219,14.8404703 4.04688941,14.9579254 3.95331097,15.1390747 C3.85973254,15.3202241 3.86991918,15.5375393 3.98003281,15.7091406 C4.09014644,15.8807419 4.28345351,15.9805518 4.48712015,15.9709641 L11.8971203,15.9709641 C12.1026823,15.9738705 12.2938855,15.8658693 12.3975147,15.688316 C12.5011438,15.5107627 12.5011438,15.2911655 12.3975147,15.1136122 C12.2938855,14.9360589 12.1026823,14.8280576 11.8971203,14.8309641 L4.48712015,14.8309641 C4.46931744,14.8301287 4.45148535,14.8301287 4.43368265,14.8309641 Z" id="Shape"></path>
        </g>
    </g>
</svg>