<?xml version="1.0" encoding="UTF-8"?>
<svg width="23px" height="21px" viewBox="0 0 23 21" version="1.1" xmlns="http://www.w3.org/2000/svg" xmlns:xlink="http://www.w3.org/1999/xlink">
    <!-- Generator: Sketch 46 (44423) - http://www.bohemiancoding.com/sketch -->
    <title>Cart Icon</title>
    <desc>Created with Sketch.</desc>
    <defs>
        <polygon id="path-1" points="0 21 23 21 23 0 0 0"></polygon>
    </defs>
    <g id="Welcome" stroke="none" stroke-width="1" fill="none" fill-rule="evenodd">
        <g id="Home-//-Desktop-HD-Copy-2" transform="translate(-1252.000000, -67.000000)">
            <g id="Header" transform="translate(0.000000, 30.000000)">
                <g id="Cart-Icon" transform="translate(1252.000000, 37.000000)">
                    <mask id="mask-2" fill="white">
                        <use xlink:href="#path-1"></use>
                    </mask>
                    <g id="Clip-2"></g>
                    <path d="M22.021259,4.85933284 L19.6063072,12.2168773 L7.5754159,12.2155158 L5.17863158,4.8493479 L22.021259,4.85933284 Z M8.2640095,16.69558 C9.16839789,16.69558 9.90351809,17.4485358 9.90351809,18.3748666 C9.90351809,19.3007435 9.16839789,20.0541532 8.2640095,20.0541532 C7.36006423,20.0541532 6.62450091,19.3007435 6.62450091,18.3748666 C6.62450091,17.4485358 7.36006423,16.69558 8.2640095,16.69558 L8.2640095,16.69558 Z M19.1556638,16.6692561 C20.0737887,16.6692561 20.821316,17.4340123 20.821316,18.3748666 C20.821316,19.315721 20.0737887,20.0804771 19.1556638,20.0804771 C18.237539,20.0804771 17.4900117,19.315721 17.4900117,18.3748666 C17.4900117,17.4340123 18.237539,16.6692561 19.1556638,16.6692561 L19.1556638,16.6692561 Z M0.443110429,0.908016917 L2.95155857,0.908016917 L7.8306475,15.897692 C6.55404636,16.0923984 5.70105878,17.2297747 5.70105878,18.3748666 C5.70105878,19.8222301 6.85093034,21 8.2640095,21 C9.67708866,21 10.8269602,19.8222301 10.8269602,18.3748666 C10.8269602,17.8969507 10.6922547,17.2411212 10.2974433,16.7931602 L17.1931278,16.7931602 C16.8195857,17.1703189 16.5931562,17.8969507 16.5931562,18.3748666 C16.5931562,19.8222301 17.7430278,21 19.1556638,21 C20.5691861,21 21.7186146,19.8222301 21.7186146,18.3748666 C21.7186146,16.9275031 20.617042,15.8808991 19.2039629,15.8808991 L8.77402961,15.8808991 L7.87185677,13.1250537 L19.7964015,13.1250537 C20.0724593,13.1250537 20.3170563,12.9439631 20.4047921,12.6766388 L22.9672998,4.80169247 C23.0319939,4.60153966 22.9996468,4.3809631 22.8795639,4.20985741 C22.7585947,4.03920559 22.5653986,3.93799453 22.3593523,3.93799453 L4.8817476,3.93799453 L3.74649868,0.448709346 C3.65920592,0.180477355 3.41416586,0.000294444265 3.13855117,0.000294444265 L0.443110429,0.000294444265 C0.443110429,0.000294444265 0,-0.0273910912 0,0.454155681 C0,0.931163841 0.443110429,0.908016917 0.443110429,0.908016917 L0.443110429,0.908016917 Z" id="Fill-1" fill="#000000" mask="url(#mask-2)"></path>
                </g>
            </g>
        </g>
    </g>
</svg>