<?xml version="1.0" encoding="UTF-8"?>
<svg width="16px" height="16px" viewBox="0 0 16 16" version="1.1" xmlns="http://www.w3.org/2000/svg" xmlns:xlink="http://www.w3.org/1999/xlink">
    <!-- Generator: Sketch 46 (44423) - http://www.bohemiancoding.com/sketch -->
    <title>Path</title>
    <desc>Created with Sketch.</desc>
    <defs></defs>
    <g id="Welcome" stroke="none" stroke-width="1" fill="none" fill-rule="evenodd">
        <g id="Home-//-Desktop-HD-Copy-2" transform="translate(-1159.000000, -7.000000)" fill="#C6C6C6">
            <g id="Pre-Navbar">
                <g id="Path">
                    <path d="M1166.61308,16.8942692 C1167.07534,17.3790999 1167.63311,17.6784207 1168.15969,17.7385154 C1168.69905,17.7900454 1169.26867,17.6118543 1169.89844,16.9083462 C1170.0936,16.6903417 1170.30742,16.4379385 1170.66706,16.3173608 C1171.02671,16.1967872 1171.45887,16.2716211 1171.91841,16.5190468 C1172.79512,17.1853098 1173.69925,17.8600674 1174.5617,18.5452533 C1174.97284,18.9567061 1175.07868,19.4986259 1174.94601,19.9242024 C1174.81337,20.349779 1174.52916,20.6721298 1174.26644,20.942004 C1172.80181,22.4693495 1171.06693,23.2074409 1169.3642,22.9494129 C1167.7194,22.6644492 1166.12775,21.5115429 1164.3635,19.745937 C1163.60516,18.9870146 1163.01437,18.3957638 1162.26386,17.6446843 C1160.49961,15.8790784 1159.3476,14.2862002 1159.06285,12.6401362 C1158.7243,10.6043845 1159.80494,8.94733403 1161.06871,7.73412498 C1161.33838,7.47121289 1161.66048,7.18677989 1162.08573,7.0540227 C1162.51098,6.92126763 1163.05248,7.0271741 1163.46361,7.43862906 C1164.14828,8.30173652 1164.82251,9.20658041 1165.48826,10.0839559 C1165.7355,10.5438483 1165.81027,10.9763445 1165.68979,11.3362672 C1165.56931,11.6961943 1165.3171,11.9101744 1165.09926,12.1054842 C1164.3963,12.7357354 1164.21824,13.3058028 1164.26973,13.8455724 C1164.32978,14.3725618 1164.62879,14.9308319 1165.11333,15.3933754"></path>
                </g>
            </g>
        </g>
    </g>
</svg>