<?xml version="1.0" encoding="UTF-8"?>
<svg width="25px" height="25px" viewBox="0 0 25 25" version="1.1" xmlns="http://www.w3.org/2000/svg" xmlns:xlink="http://www.w3.org/1999/xlink">
    <!-- Generator: Sketch 47.1 (45422) - http://www.bohemiancoding.com/sketch -->
    <title></title>
    <desc>Created with Sketch.</desc>
    <defs></defs>
    <g id="Welcome" stroke="none" stroke-width="1" fill="none" fill-rule="evenodd">
        <g id="Estáticas-//-Desktop-HD-//-Asistencia-al-Cliente" transform="translate(-1025.000000, -1225.000000)" fill="#E20025">
            <g id="Footer" transform="translate(-2.000000, 878.000000)">
                <path d="M1051.67857,366.879464 C1051.67857,367.19085 1051.62091,367.597375 1051.50558,368.099051 C1051.39025,368.600728 1051.26916,368.99572 1051.1423,369.28404 C1050.90011,369.86068 1050.19662,370.471909 1049.03181,371.117746 C1047.94773,371.705918 1046.87519,372 1045.81417,372 C1045.50279,372 1045.19717,371.979818 1044.89732,371.939453 C1044.59747,371.899088 1044.26591,371.827009 1043.90262,371.723214 C1043.53934,371.619419 1043.26832,371.535808 1043.08956,371.472377 C1042.91081,371.408947 1042.59078,371.290737 1042.12946,371.117746 C1041.66815,370.944754 1041.3856,370.84096 1041.28181,370.806362 C1040.15159,370.402714 1039.14249,369.92411 1038.25446,369.370536 C1036.7898,368.459445 1035.26749,367.213922 1033.6875,365.633929 C1032.10751,364.053936 1030.86198,362.531629 1029.95089,361.066964 C1029.39732,360.178939 1028.91871,359.169835 1028.51507,358.039621 C1028.48047,357.935825 1028.37667,357.653276 1028.20368,357.191964 C1028.03069,356.730652 1027.91248,356.410622 1027.84905,356.231864 C1027.78562,356.053106 1027.70201,355.782089 1027.59821,355.418806 C1027.49442,355.055523 1027.42234,354.72396 1027.38198,354.424107 C1027.34161,354.124254 1027.32143,353.81864 1027.32143,353.507254 C1027.32143,352.446237 1027.61551,351.373703 1028.20368,350.289621 C1028.84952,349.124808 1029.46075,348.421318 1030.03739,348.179129 C1030.32571,348.052269 1030.7207,347.931176 1031.22238,347.815848 C1031.72405,347.70052 1032.13058,347.642857 1032.44196,347.642857 C1032.60342,347.642857 1032.72452,347.660156 1032.80525,347.694754 C1033.01284,347.763951 1033.31845,348.202191 1033.7221,349.009487 C1033.84896,349.22861 1034.02195,349.539991 1034.24107,349.943638 C1034.46019,350.347286 1034.66202,350.713447 1034.84654,351.042132 C1035.03106,351.370816 1035.20982,351.679314 1035.38281,351.967634 C1035.41741,352.013765 1035.51832,352.157923 1035.68555,352.400112 C1035.85277,352.6423 1035.97675,352.847004 1036.05748,353.01423 C1036.13821,353.181455 1036.17857,353.345795 1036.17857,353.507254 C1036.17857,353.73791 1036.01423,354.026226 1035.68555,354.37221 C1035.35686,354.718194 1034.99935,355.035341 1034.613,355.323661 C1034.22665,355.611981 1033.86914,355.917595 1033.54046,356.240513 C1033.21177,356.563432 1033.04743,356.828682 1033.04743,357.036272 C1033.04743,357.140067 1033.07626,357.269809 1033.13393,357.425502 C1033.19159,357.581195 1033.24061,357.699404 1033.28097,357.780134 C1033.32134,357.860863 1033.40206,357.999255 1033.52316,358.195312 C1033.64425,358.39137 1033.71057,358.50093 1033.7221,358.523996 C1034.59859,360.103989 1035.60193,361.459072 1036.73214,362.589286 C1037.86236,363.7195 1039.21744,364.722838 1040.79743,365.59933 C1040.8205,365.610863 1040.93006,365.677176 1041.12612,365.79827 C1041.32217,365.919364 1041.46057,366.000093 1041.54129,366.040458 C1041.62202,366.080822 1041.74023,366.129836 1041.89593,366.1875 C1042.05162,366.245164 1042.18136,366.273996 1042.28516,366.273996 C1042.49275,366.273996 1042.758,366.109656 1043.08092,365.780971 C1043.40383,365.452286 1043.70945,365.094775 1043.99777,364.708426 C1044.28609,364.322078 1044.60323,363.964566 1044.94922,363.635882 C1045.2952,363.307197 1045.58352,363.142857 1045.81417,363.142857 C1045.97563,363.142857 1046.13997,363.183221 1046.3072,363.263951 C1046.47442,363.34468 1046.67913,363.468656 1046.92132,363.635882 C1047.16351,363.803107 1047.30766,363.904018 1047.35379,363.938616 C1047.64211,364.111608 1047.95061,364.290364 1048.2793,364.474888 C1048.60798,364.659413 1048.97414,364.861234 1049.37779,365.080357 C1049.78144,365.29948 1050.09282,365.47247 1050.31194,365.59933 C1051.11924,366.002978 1051.55748,366.308593 1051.62667,366.516183 C1051.66127,366.596913 1051.67857,366.718005 1051.67857,366.879464 Z" id=""></path>
            </g>
        </g>
    </g>
</svg>