<?xml version="1.0" encoding="UTF-8"?>
<svg width="30px" height="18px" viewBox="0 0 30 18" version="1.1" xmlns="http://www.w3.org/2000/svg" xmlns:xlink="http://www.w3.org/1999/xlink">
    <!-- Generator: Sketch 47.1 (45422) - http://www.bohemiancoding.com/sketch -->
    <title>Page 1</title>
    <desc>Created with Sketch.</desc>
    <defs></defs>
    <g id="Welcome" stroke="none" stroke-width="1" fill="none" fill-rule="evenodd">
        <g id="Estáticas-//-Desktop-HD-//-Asistencia-al-Cliente" transform="translate(-1025.000000, -1268.000000)" fill="#EC2A39">
            <g id="Footer" transform="translate(1.000000, 876.000000)">
                <path d="M1034.31455,401 L1038.78702,404.560209 C1038.9114,404.658052 1039.0886,404.658052 1039.21298,404.560209 L1043.68545,401 L1052.47059,409 L1025.52941,409 L1034.31455,401 Z M1053,394 L1053,408 L1045,400.528746 L1053,394 Z M1025.04662,394 L1033.29412,400.528746 L1025.04662,408 L1025.04662,394 Z M1025.78877,393 L1052.21123,393 L1039,403.557692 L1025.78877,393 Z M1024.69767,392 C1024.31709,392 1024,392.314654 1024,392.692308 L1024,409.307692 C1024,409.685346 1024.31709,410 1024.69767,410 L1053.30233,410 C1053.68291,410 1054,409.685346 1054,409.307692 L1054,392.692308 C1054,392.314654 1053.68291,392 1053.30233,392 L1024.69767,392 Z" id="Page-1"></path>
            </g>
        </g>
    </g>
</svg>