<?xml version="1.0" encoding="UTF-8"?>
<svg width="60px" height="56px" viewBox="0 0 60 56" version="1.1" xmlns="http://www.w3.org/2000/svg" xmlns:xlink="http://www.w3.org/1999/xlink">
    <!-- Generator: Sketch 46.1 (44463) - http://www.bohemiancoding.com/sketch -->
    <title>Page 1</title>
    <desc>Created with Sketch.</desc>
    <defs>
        <polygon id="path-1" points="33.4 0.0001 33.4 44 0.7004 44 0.7004 0.0001"></polygon>
        <polygon id="path-3" points="32.7002 0.7 0.0002 0.7 0.0002 44.6998 32.7002 44.6998 32.7002 0.7"></polygon>
    </defs>
    <g id="Welcome" stroke="none" stroke-width="1" fill="none" fill-rule="evenodd">
        <g id="Home-//-Desktop-HD" transform="translate(-923.000000, -3784.000000)">
            <g id="Contenido-Destacado" transform="translate(0.000000, 3718.000000)">
                <g id="Icon-04" transform="translate(901.000000, 65.000000)">
                    <g id="Page-1" transform="translate(22.000000, 0.000000)">
                        <g id="Group-3" transform="translate(26.000000, 12.300000)">
                            <mask id="mask-2" fill="white">
                                <use xlink:href="#path-1"></use>
                            </mask>
                            <g id="Clip-2"></g>
                            <path d="M17.1004,2.0001 C25.1004,2.0001 31.4994,8.5001 31.4994,16.4001 C31.4994,24.3001 24.9994,30.8001 17.1004,30.8001 L4.4004,30.8001 L12.6004,21.3001 L11.1004,20.0001 L0.7004,32.0001 L10.9994,44.0001 L12.4994,42.7001 L3.9994,32.8001 L16.9994,32.8001 C26.1004,32.8001 33.4004,25.4001 33.4004,16.4001 C33.4004,7.4001 26.2004,0.0001 17.1004,0.0001 L17.1004,2.0001 Z" id="Fill-1" fill="#000000" mask="url(#mask-2)"></path>
                        </g>
                        <g id="Group-6" transform="translate(0.000000, 0.300000)">
                            <mask id="mask-4" fill="white">
                                <use xlink:href="#path-3"></use>
                            </mask>
                            <g id="Clip-5"></g>
                            <path d="M22.4002,0.6998 L20.9002,1.9998 L29.4002,11.8998 L16.4002,11.8998 C7.3002,11.8998 0.0002,19.2998 0.0002,28.2998 C0.0002,37.2998 7.4002,44.6998 16.4002,44.6998 L16.4002,42.6998 C8.4002,42.6998 2.0002,36.1998 2.0002,28.2998 C2.0002,20.3998 8.5002,13.8998 16.4002,13.8998 L29.1002,13.8998 L20.9002,23.3998 L22.4002,24.6998 L32.7002,12.6998 L22.4002,0.6998 Z" id="Fill-4" fill="#000000" mask="url(#mask-4)"></path>
                        </g>
                    </g>
                </g>
            </g>
        </g>
    </g>
</svg>