<?xml version="1.0" encoding="UTF-8"?>
<svg width="64px" height="55px" viewBox="0 0 64 55" version="1.1" xmlns="http://www.w3.org/2000/svg" xmlns:xlink="http://www.w3.org/1999/xlink">
    <!-- Generator: Sketch 46.1 (44463) - http://www.bohemiancoding.com/sketch -->
    <title>Icon</title>
    <desc>Created with Sketch.</desc>
    <defs></defs>
    <g id="Welcome" stroke="none" stroke-width="1" fill="none" fill-rule="evenodd">
        <g id="Home-//-Desktop-HD" transform="translate(-456.000000, -3784.000000)">
            <g id="Contenido-Destacado" transform="translate(0.000000, 3718.000000)">
                <g id="Icon-02" transform="translate(414.000000, 66.000000)">
                    <g id="Icon" transform="translate(74.000000, 27.500000) scale(-1, 1) translate(-74.000000, -27.500000) translate(42.000000, 0.000000)">
                        <rect id="Rectangle-5" stroke="#FFFFFF" x="0.5" y="0.5" width="63" height="54"></rect>
                        <path d="M60,40.2 L57,40.2 C56.5,36.9 53.6,34.3 50.1,34.3 C46.6,34.3 43.7,36.9 43.2,40.2 L23.3,40.2 L23.3,17.2 L23.3,7 L60,7 L60,40.2 Z M50,46.4 C47.2,46.4 45,44.1 45,41.4 C45,38.6 47.3,36.4 50,36.4 C52.8,36.4 55,38.7 55,41.4 C55.1,44.1 52.8,46.4 50,46.4 L50,46.4 Z M13.3,46.4 C10.5,46.4 8.3,44.1 8.3,41.4 C8.3,38.6 10.6,36.4 13.3,36.4 C16,36.4 18.2,38.5 18.3,41.2 L18.3,41.3 L18.3,41.5 C18.3,44.1 16,46.4 13.3,46.4 L13.3,46.4 Z M4,25.7 L11.6,18.1 L21.3,18.1 L21.3,26.7 L4.3,26.7 C3.7,26.7 4.3,27.1 4.3,27.7 C4.3,28.3 3.7,28.7 4.3,28.7 L21.3,28.7 L21.3,40.2 L20.2,40.2 C19.7,36.9 16.8,34.3 13.3,34.3 C9.8,34.3 6.9,36.9 6.4,40.2 L4,40.2 L4,25.7 Z M22.3,5 C21.7,5 21.3,5.4 21.3,6 L21.3,16.1 L11.2,16.1 C10.9,16.1 10.7,16.2 10.5,16.4 L2.3,24.6 C2.1,24.8 2,25 2,25.3 L2,41.2 C2,41.8 2.4,42.2 3,42.2 L6.3,42.2 C6.7,45.7 9.7,48.4 13.3,48.4 C16.9,48.4 19.9,45.7 20.3,42.2 L22.3,42.2 L43,42.2 C43.4,45.7 46.4,48.4 50,48.4 C53.6,48.4 56.6,45.7 57,42.2 L61,42.2 C61.6,42.2 62,41.8 62,41.2 L62,6 C62,5.5 61.6,5 61,5 L22.3,5 Z" id="Page-1" fill="#000000"></path>
                    </g>
                </g>
            </g>
        </g>
    </g>
</svg>