<?xml version="1.0" encoding="UTF-8" standalone="no"?>
<svg width="17px" height="13px" viewBox="0 0 17 13" version="1.1" xmlns="http://www.w3.org/2000/svg" xmlns:xlink="http://www.w3.org/1999/xlink">
    <!-- Generator: Sketch 46.2 (44496) - http://www.bohemiancoding.com/sketch -->
    <title></title>
    <desc>Created with Sketch.</desc>
    <defs></defs>
    <g id="Welcome" stroke="none" stroke-width="1" fill="none" fill-rule="evenodd">
        <g id="Home-//-Desktop-HD" transform="translate(-1274.000000, -4466.000000)" fill="#000000">
            <g id="Footer" transform="translate(-2.000000, 3942.000000)">
                <g id="Derechos-&amp;-Redes">
                    <g transform="translate(154.000000, 507.000000)">
                        <path d="M1138.27232,18.6696429 C1137.82366,19.3258961 1137.28125,19.8850423 1136.64509,20.3470982 C1136.65179,20.4408487 1136.65513,20.5814723 1136.65513,20.7689732 C1136.65513,21.6395133 1136.5279,22.5083662 1136.27344,23.375558 C1136.01897,24.2427499 1135.63226,25.0747728 1135.11328,25.8716518 C1134.59431,26.6685308 1133.97657,27.3733228 1133.26004,27.9860491 C1132.54352,28.5987754 1131.67969,29.0876098 1130.66853,29.452567 C1129.65736,29.8175241 1128.5759,30 1127.42411,30 C1125.60937,30 1123.94867,29.5145138 1122.44196,28.5435268 C1122.67634,28.5703126 1122.9375,28.5837054 1123.22545,28.5837054 C1124.73215,28.5837054 1126.07477,28.1216564 1127.25335,27.1975446 C1126.55022,27.1841517 1125.92076,26.9681941 1125.36496,26.5496652 C1124.80915,26.1311363 1124.42746,25.5971015 1124.21987,24.9475446 C1124.44085,24.981027 1124.64509,24.9977679 1124.83259,24.9977679 C1125.12054,24.9977679 1125.40513,24.9609379 1125.68638,24.8872768 C1124.93638,24.7332582 1124.31529,24.359936 1123.8231,23.7672991 C1123.33091,23.1746622 1123.08482,22.4866111 1123.08482,21.703125 L1123.08482,21.6629464 C1123.54018,21.917412 1124.02902,22.0546874 1124.55134,22.0747768 C1124.10937,21.7801325 1123.75781,21.3950917 1123.49665,20.9196429 C1123.23549,20.4441941 1123.10491,19.9285742 1123.10491,19.3727679 C1123.10491,18.7834792 1123.25223,18.2377257 1123.54688,17.7354911 C1124.35715,18.7332639 1125.34319,19.531805 1126.50502,20.1311384 C1127.66686,20.7304717 1128.91071,21.0636157 1130.23661,21.1305804 C1130.18304,20.8761148 1130.15625,20.6283494 1130.15625,20.3872768 C1130.15625,19.4899509 1130.47265,18.7248916 1131.10547,18.0920759 C1131.73828,17.4592602 1132.50334,17.1428571 1133.40067,17.1428571 C1134.33817,17.1428571 1135.12835,17.4843716 1135.77121,18.1674107 C1136.50112,18.026785 1137.1875,17.7656269 1137.83036,17.3839286 C1137.58259,18.1540217 1137.10715,18.7499979 1136.40402,19.171875 C1137.02679,19.1049104 1137.64955,18.9375013 1138.27232,18.6696429 Z" id=""></path>
                    </g>
                </g>
            </g>
        </g>
    </g>
</svg>