<?xml version="1.0" encoding="UTF-8"?>
<svg width="272px" height="65px" viewBox="0 0 272 65" version="1.1" xmlns="http://www.w3.org/2000/svg" xmlns:xlink="http://www.w3.org/1999/xlink">
    <!-- Generator: Sketch 54.1 (76490) - https://sketchapp.com -->
    <title>type-preunic</title>
    <desc>Created with Sketch.</desc>
    <g id="Page-1" stroke="none" stroke-width="1" fill="none" fill-rule="evenodd">
        <g id="type-preunic" fill-rule="nonzero">
            <path d="M75,17.8490576 C76.38879,17.4606176 77.8325699,17.2944776 79.1651998,17.2944776 C80.4416698,17.2944776 80.9974198,17.7379076 80.9974198,18.6820975 L80.9974198,22.5138474 C83.0519397,19.0705375 86.7163796,17.0160176 90.7154394,17.0160176 C97.8793492,17.0160176 103.487159,22.4576874 103.487159,31.3988271 C103.487159,41.5052867 96.4905592,48.0022965 88.7159095,48.0022965 C85.8283496,48.0022965 82.9969497,47.0581065 80.9974198,45.1697266 L80.9974198,58.6024961 L76.7772299,58.6024961 C75.49959,58.6024961 75,58.1578961 75,57.2137061 L75,17.8490576 Z M80.9974198,29.1769971 L80.9974198,40.5610967 C82.7746497,42.2821667 85.1614496,42.8929066 87.6605695,42.8929066 C93.2695493,42.8929066 97.3785892,38.2292868 97.3785892,31.6211271 C97.3785892,25.7898473 94.4360393,22.0692474 89.3266495,22.0692474 C85.9394996,22.0692474 82.6634997,24.2349173 80.9974198,29.1769971 L80.9974198,29.1769971 Z" id="Fill-1134" fill="#EF002D"></path>
            <path d="M130.307653,20.1259945 C130.307653,20.4594445 130.196503,20.7928945 129.975373,21.1813344 C129.364633,22.1255244 128.364283,23.0135544 127.308943,23.6242944 C125.865163,22.5689544 123.976783,22.1255244 122.255713,22.1255244 C118.702423,22.1255244 116.258294,24.2350343 115.314104,28.3440742 L115.314104,47.3355135 L111.093914,47.3355135 C109.816274,47.3355135 109.316684,46.8920835 109.316684,45.9478935 L109.316684,17.8491746 C110.705474,17.4607346 112.149254,17.2934246 113.481884,17.2934246 C114.759524,17.2934246 115.314104,17.7380246 115.314104,18.6822145 L115.314104,21.9582144 C116.980184,19.0706545 119.978893,17.0161346 123.865633,17.0161346 C125.920153,17.0161346 127.475083,17.4045746 128.642743,18.0153146 C129.864223,18.6260545 130.307653,19.2367945 130.307653,20.1259945" id="Fill-1136" fill="#EF002D"></path>
            <path d="M156.239064,43.8376816 C156.239064,45.6149115 152.684604,48.0017115 147.131784,48.0017115 C138.469105,48.0017115 132.249385,41.5608617 132.249385,32.619722 C132.249385,22.7917224 139.024855,17.0154326 147.131784,17.0154326 C154.239534,17.0154326 159.015474,21.6802224 159.015474,27.7887922 C159.015474,29.6221821 158.627034,31.3432521 158.072454,32.509742 C157.183254,34.341962 156.017934,34.9527019 153.684954,34.9527019 L138.412945,34.9527019 C139.079845,40.2832217 142.967754,42.8934916 148.187124,42.8934916 C150.797394,42.8934916 153.074214,42.3939017 155.407194,41.2274117 C155.850624,41.7831617 156.239064,42.9484816 156.239064,43.8376816 M138.469105,29.9544621 L152.740764,29.9544621 C153.018054,29.3998821 153.129204,28.7329822 153.129204,28.1222422 C153.129204,24.4566323 150.908544,22.1248224 146.799504,22.1248224 C142.245864,22.1248224 139.134835,25.0685423 138.469105,29.9544621" id="Fill-1138" fill="#EF002D"></path>
            <path d="M190.611791,34.8415519 C190.611791,43.0608016 185.391251,48.0017115 177.506621,48.0017115 C169.620822,48.0017115 164.400282,43.0608016 164.400282,34.8415519 L164.400282,17.8496426 C165.789072,17.4600326 167.232852,17.2938926 168.565482,17.2938926 C169.843121,17.2938926 170.397701,17.7373226 170.397701,18.6826825 L170.397701,35.2299919 C170.397701,40.0609218 173.507561,42.9484816 177.506621,42.9484816 C181.504511,42.9484816 184.614371,40.0609218 184.614371,35.2299919 L184.614371,17.6823326 L188.834561,17.6823326 C190.111031,17.6823326 190.611791,18.1269326 190.611791,19.0711225 L190.611791,34.8415519 Z" id="Fill-1140" fill="#EF002D"></path>
            <path d="M199.43944,47.3357475 C198.1618,47.3357475 197.663381,46.8923175 197.663381,45.9469575 L197.663381,17.8494086 C199.051,17.4597986 200.49478,17.2936586 201.82741,17.2936586 C203.10505,17.2936586 203.65963,17.7382586 203.65963,18.6824485 L203.65963,20.9592685 C205.8253,18.7374385 209.49091,17.0163686 213.15535,17.0163686 C219.87466,17.0163686 223.76257,21.7923084 223.76257,30.1765281 L223.76257,39.9507078 C223.76257,42.0602177 224.31715,42.8932576 225.649779,42.8932576 L227.038569,42.8932576 C227.260869,43.5601576 227.372019,44.2258876 227.372019,45.0039376 C227.372019,46.2254175 225.817089,47.7253575 223.20682,47.7253575 C220.48657,47.7253575 217.76515,46.1704275 217.76515,40.5052877 L217.76515,29.5657881 C217.76515,24.6798683 215.76562,22.1245884 211.43428,22.1245884 C208.71286,22.1245884 205.60417,23.2910784 203.65963,25.1232983 L203.65963,47.3357475 L199.43944,47.3357475 Z" id="Fill-1142" fill="#EF002D"></path>
            <path d="M231.590805,9.90791686 C231.590805,7.74224694 233.034585,6.40961698 234.977955,6.40961698 C236.866335,6.40961698 238.587405,7.85339693 238.587405,10.1302169 C238.587405,12.2958868 237.199785,13.6285167 235.145265,13.6285167 C233.311875,13.6285167 231.590805,12.1847368 231.590805,9.90791686 L231.590805,9.90791686 Z M232.201545,17.8487066 C233.590335,17.4602666 235.034115,17.2941266 236.366745,17.2941266 C237.643215,17.2941266 238.198965,17.7375566 238.198965,18.6817465 L238.198965,39.9500058 C238.198965,42.0606857 238.754715,42.8937256 240.087345,42.8937256 L241.474965,42.8937256 C241.697265,43.5606256 241.808415,44.2263556 241.808415,45.0044056 C241.808415,46.2258855 240.253485,47.7246555 237.643215,47.7246555 C234.922965,47.7246555 232.201545,46.1697255 232.201545,40.5057557 L232.201545,17.8487066 Z" id="Fill-1144" fill="#EF002D"></path>
            <path d="M271.294169,24.4571003 C271.294169,25.0128503 270.905729,25.5674303 270.183839,26.0120303 C269.129669,26.6789302 267.685889,27.1785202 266.185949,27.2896702 C265.407899,24.2909603 263.131079,22.1252904 259.299329,22.1252904 C254.801849,22.1252904 251.35854,25.6785803 251.35854,31.4537001 C251.35854,38.9510598 256.467929,42.8939596 262.298039,42.8939596 C264.908309,42.8939596 267.296279,42.3943697 269.629259,41.2278797 C270.072689,41.8936097 270.462299,43.0051096 270.462299,43.8381496 C270.462299,45.6142095 266.851679,48.0021795 261.410009,48.0021795 C253.191929,48.0021795 245.24997,42.0609197 245.24997,31.6210101 C245.24997,22.5137304 251.24856,17.0159006 259.577789,17.0159006 C265.130609,17.0159006 269.239649,19.5700105 270.905729,22.9021704 C271.184189,23.4579204 271.294169,23.9575103 271.294169,24.4571003" id="Fill-1146" fill="#EF002D"></path>
            <g id="iso-preunic" transform="translate(0.699999, 0.699999)">
                <path d="M24.5813868,7.64146611 C27.8681869,10.9558662 29.746187,14.5162664 30.6161871,18.6154666 C30.7661871,19.3258666 30.8333871,19.7950666 29.730587,19.7002666 C24.4061868,19.2394666 19.9793866,14.6122664 19.8437866,9.21466617 C19.8089866,7.84906612 19.8569866,6.48106606 19.8209866,5.11546601 C19.8029866,4.41466598 20.0537866,4.36066598 20.5925867,4.65586599 C22.2041867,5.53666602 23.5805868,6.72586607 24.5813868,7.64146611" id="Fill-1064" fill="#FF6900"></path>
                <path d="M41.5192675,26.6770669 C39.3964674,28.934267 36.7336673,30.184667 33.7540672,30.8458671 C32.9548671,31.0234671 32.6548671,30.9178671 32.8396671,29.909867 C33.9628672,23.8354668 38.6584674,19.0546666 44.6896676,17.9734666 C45.7624677,17.7814665 45.8368677,17.8402665 45.6196677,18.8854666 C45.0028676,21.8746667 43.7548676,24.5374668 41.5192675,26.6770669" id="Fill-1066" fill="#FAB521"></path>
                <path d="M39.1331874,7.70830611 C35.8295873,11.0059062 33.9347872,14.5579064 33.0443872,18.6523066 C32.8919871,19.3639066 32.8211871,19.8319066 33.9239872,19.7419066 C39.2519874,19.3075066 43.7015876,14.7019064 43.8623876,9.30430617 C43.9043876,7.93870612 43.8623876,6.57070607 43.9055876,5.20510601 C43.9271876,4.50430598 43.6763876,4.44910598 43.1363876,4.74190599 C41.5199875,5.61550603 40.1387874,6.79750607 39.1331874,7.70830611" id="Fill-1068" fill="#FF6900"></path>
                <path d="M30.209507,9.20950617 C30.5587071,8.57230614 30.5983071,7.94950612 30.5851071,7.3387061 C30.5467071,5.64310603 30.397907,3.90070596 29.447507,2.3407059 C27.8935069,-0.212894198 24.0619068,-0.806894222 21.9295067,1.20550585 C21.4411067,1.66390587 21.3415067,1.96870588 22.0411067,2.3299059 C25.1779068,3.94510596 27.7099069,6.15550605 29.842307,8.96950616 C29.898707,9.04390616 30.076307,9.35110618 30.209507,9.20950617" id="Fill-1070" fill="#EF002D"></path>
                <path d="M33.5017072,9.45706618 C33.1369072,8.82946615 33.0793072,8.20786613 33.0757072,7.59706611 C33.0697072,5.90026604 33.1717072,4.15546597 34.0789072,2.57026591 C35.5657073,-0.0241341914 39.3793074,-0.720134219 41.5669075,1.23466585 C42.0649075,1.68106587 42.1741075,1.98346588 41.4841075,2.3614659 C38.3905074,4.06066597 35.9185073,6.33706606 33.8629072,9.20746617 C33.8089072,9.28306617 33.6385072,9.59506619 33.5017072,9.45706618" id="Fill-1072" fill="#EF002D"></path>
                <path d="M16.2771465,14.5459064 C15.5763465,14.3539064 15.0999464,13.9495064 14.6703464,13.5163064 C13.4787464,12.3091063 12.3291463,10.9927062 11.8671463,9.22390617 C11.1111462,6.33310606 13.3455464,3.16510593 16.2759465,3.02950592 C16.9455465,2.99830592 17.2335465,3.13750593 17.0067465,3.88990596 C15.9879465,7.27030609 15.8175465,10.6255062 16.3611465,14.1151064 C16.3755465,14.2063064 16.4715465,14.5471064 16.2771465,14.5459064" id="Fill-1074" fill="#EF002D"></path>
                <path d="M47.2011477,14.6577464 C47.9043477,14.4753464 48.3879478,14.0805464 48.8223478,13.6521464 C50.0319478,12.4641463 51.2019479,11.1633462 51.6891479,9.40294618 C52.4895479,6.52174606 50.3007478,3.32134594 47.3739477,3.14254593 C46.7055477,3.10054593 46.4151477,3.23734593 46.6299477,3.99214596 C47.5983477,7.3869461 47.7183477,10.7445462 47.1243477,14.2257464 C47.1087477,14.3169464 47.0067477,14.6565464 47.2011477,14.6577464" id="Fill-1076" fill="#EF002D"></path>
                <path d="M7.64134611,24.5813868 C10.9557462,27.8681869 14.5161464,29.746187 18.6153466,30.6161871 C19.3257466,30.7661871 19.7949466,30.8333871 19.7001466,29.730587 C19.2381466,24.4061868 14.6121464,19.9793866 9.21454617,19.8437866 C7.84894612,19.8089866 6.48094606,19.8569866 5.11534601,19.8209866 C4.41454598,19.8029866 4.36054598,20.0537866 4.65574599,20.5925867 C5.53654602,22.2041867 6.72574607,23.5805868 7.64134611,24.5813868" id="Fill-1078" fill="#FF6900"></path>
                <path d="M26.6770669,41.5193875 C28.934267,39.3965874 30.184667,36.7337873 30.8458671,33.7541872 C31.0234671,32.9549871 30.9178671,32.6537871 29.909867,32.8397871 C23.8354668,33.9629872 19.0546666,38.6585874 17.9734666,44.6897876 C17.7814665,45.7625877 17.8402665,45.8369877 18.8854666,45.6197877 C21.8746667,45.0029876 24.5374668,43.7549876 26.6770669,41.5193875" id="Fill-1080" fill="#FAB521"></path>
                <path d="M7.70818611,39.1333074 C11.0057862,35.8297073 14.5577864,33.9349072 18.6521866,33.0445072 C19.3637866,32.8921071 19.8317866,32.8213071 19.7417866,33.9241072 C19.3073866,39.2521074 14.7017864,43.7017076 9.30418617,43.8625076 C7.93858612,43.9045076 6.57058607,43.8625076 5.20498601,43.9057076 C4.50418598,43.9273076 4.44898598,43.6765076 4.74178599,43.1365076 C5.61538603,41.5201075 6.79738607,40.1389074 7.70818611,39.1333074" id="Fill-1082" fill="#FF6900"></path>
                <path d="M9.20950617,30.209627 C8.57230614,30.5588271 7.94950612,30.5984271 7.3387061,30.5852271 C5.64310603,30.5468271 3.90070596,30.398027 2.3407059,29.447627 C-0.212894198,27.8936269 -0.806894222,24.0620268 1.20550585,21.9296267 C1.66390587,21.4412267 1.96870588,21.3416267 2.3299059,22.0412267 C3.94510596,25.1780268 6.15550605,27.7100269 8.96950616,29.842427 C9.04390616,29.898827 9.35110618,30.076427 9.20950617,30.209627" id="Fill-1084" fill="#EF002D"></path>
                <path d="M9.45706618,33.5018272 C8.82946615,33.1370272 8.20786613,33.0794272 7.59706611,33.0758272 C5.90026604,33.0698272 4.15546597,33.1718272 2.57026591,34.0790272 C-0.0241341914,35.5658273 -0.720134219,39.3794274 1.23466585,41.5670275 C1.68106587,42.0650275 1.98346588,42.1742275 2.3614659,41.4842275 C4.06066597,38.3906274 6.33706606,35.9186273 9.20746617,33.8630272 C9.28306617,33.8090272 9.59386619,33.6386272 9.45706618,33.5018272" id="Fill-1086" fill="#EF002D"></path>
                <path d="M14.5459064,16.2771465 C14.3539064,15.5775465 13.9495064,15.0999464 13.5163064,14.6703464 C12.3091063,13.4787464 10.9927062,12.3291463 9.22390617,11.8671463 C6.33310606,11.1111462 3.16510593,13.3455464 3.02950592,16.2759465 C2.99830592,16.9455465 3.13750593,17.2335465 3.88990596,17.0067465 C7.27030609,15.9879465 10.6255062,15.8175465 14.1151064,16.3611465 C14.2063064,16.3755465 14.5471064,16.4715465 14.5459064,16.2771465" id="Fill-1088" fill="#EF002D"></path>
                <path d="M14.6575064,47.2011477 C14.4751064,47.9043477 14.0803064,48.3879478 13.6519064,48.8223478 C12.4639063,50.0319478 11.1631062,51.2019479 9.40270618,51.6891479 C6.52150606,52.4895479 3.32110594,50.3007478 3.14230593,47.3739477 C3.10030593,46.7055477 3.23710593,46.4151477 3.99190596,46.6299477 C7.3867061,47.5983477 10.7443062,47.7183477 14.2255064,47.1243477 C14.3167064,47.1087477 14.6563064,47.0067477 14.6575064,47.2011477" id="Fill-1090" fill="#EF002D"></path>
                <path d="M39.0183474,55.9583881 C35.7315473,52.6439879 33.8535472,49.0835878 32.9835472,44.9843876 C32.8335471,44.2739876 32.7663471,43.8047876 33.8691472,43.8995876 C39.1935474,44.3615876 43.6203476,48.9875878 43.7559476,54.385188 C43.7907476,55.7507881 43.7427476,57.1187881 43.7787476,58.4843882 C43.7967476,59.1851882 43.5459476,59.2391882 43.0071475,58.9439882 C41.3955475,58.0631881 40.0191474,56.8739881 39.0183474,55.9583881" id="Fill-1092" fill="#FF6900"></path>
                <path d="M24.4665468,55.8915481 C27.7701469,52.5939479 29.664947,49.0419478 30.5541471,44.9475476 C30.7077471,44.2359476 30.7785471,43.7679476 29.675747,43.8579476 C24.3477468,44.2923476 19.8981466,48.8979478 19.7373466,54.295548 C19.6953466,55.6611481 19.7373466,57.0291481 19.6941466,58.3947482 C19.6725466,59.0955482 19.9233466,59.1507482 20.4633467,58.8579482 C22.0797467,57.9843481 23.4609468,56.8023481 24.4665468,55.8915481" id="Fill-1094" fill="#FF6900"></path>
                <path d="M33.3902272,54.390228 C33.0410272,55.027428 33.0014272,55.6502281 33.0146272,56.2610281 C33.0530272,57.9566281 33.2018272,59.6990282 34.1522272,61.2590283 C35.7062273,63.8126284 39.5378274,64.4066284 41.6702275,62.3942283 C42.1586275,61.9358283 42.2582275,61.6310283 41.5586275,61.2698283 C38.4218274,59.6546282 35.8898273,57.4442281 33.7574272,54.630228 C33.7010272,54.555828 33.5234272,54.248628 33.3902272,54.390228" id="Fill-1096" fill="#EF002D"></path>
                <path d="M30.097907,54.142788 C30.4627071,54.770388 30.5203071,55.391988 30.5239071,56.0027881 C30.5299071,57.6995881 30.427907,59.4443882 29.520707,61.0295883 C28.033907,63.6239884 24.2203068,64.3199884 22.0327067,62.3651883 C21.5347067,61.9187883 21.4255067,61.6163883 22.1155067,61.2383883 C25.2091068,59.5391882 27.6811069,57.2627881 29.736707,54.392388 C29.790707,54.316788 29.961107,54.005988 30.097907,54.142788" id="Fill-1098" fill="#EF002D"></path>
                <path d="M47.3225877,49.0538278 C48.0233877,49.2458278 48.4997878,49.6502278 48.9293878,50.0834278 C50.1209878,51.2906279 51.2705879,52.6082279 51.7325879,54.375828 C52.4885879,57.2666281 50.2541878,60.4346282 47.3237877,60.5702282 C46.6541877,60.6014282 46.3661877,60.4622282 46.5929877,59.7098282 C47.6117877,56.3294281 47.7821877,52.9742279 47.2385877,49.4846278 C47.2241877,49.3934278 47.1281877,49.0526278 47.3225877,49.0538278" id="Fill-1100" fill="#EF002D"></path>
                <path d="M16.3985865,48.9422278 C15.6953865,49.1246278 15.2117864,49.5194278 14.7773864,49.9478278 C13.5677864,51.1358279 12.3977863,52.4366279 11.9105863,54.197028 C11.1101862,57.0782281 13.2989864,60.2786282 16.2257865,60.4574282 C16.8941865,60.4994282 17.1845865,60.3626282 16.9697865,59.6078282 C16.0013865,56.2130281 15.8813865,52.8554279 16.4753865,49.3742278 C16.4909865,49.2830278 16.5929865,48.9434278 16.3985865,48.9422278" id="Fill-1102" fill="#EF002D"></path>
                <path d="M55.9582681,39.0183474 C52.6438679,35.7315473 49.0834678,33.8535472 44.9842676,32.9835472 C44.2738676,32.8335471 43.8046676,32.7663471 43.8994676,33.8691472 C44.3614676,39.1935474 48.9874678,43.6203476 54.385068,43.7559476 C55.7506681,43.7907476 57.1186681,43.7427476 58.4842682,43.7787476 C59.1850682,43.7967476 59.2390682,43.5459476 58.9438682,43.0071475 C58.0630681,41.3955475 56.8738681,40.0191474 55.9582681,39.0183474" id="Fill-1104" fill="#FF6900"></path>
                <path d="M55.8914281,24.4665468 C52.5938279,27.7701469 49.0418278,29.664947 44.9474276,30.5541471 C44.2358276,30.7077471 43.7678276,30.7785471 43.8578276,29.675747 C44.2922276,24.3477468 48.8978278,19.8981466 54.295428,19.7373466 C55.6610281,19.6953466 57.0290281,19.7373466 58.3946282,19.6941466 C59.0954282,19.6725466 59.1506282,19.9233466 58.8578282,20.4633467 C57.9842281,22.0797467 56.8022281,23.4609468 55.8914281,24.4665468" id="Fill-1106" fill="#FF6900"></path>
                <path d="M54.390228,33.3902272 C55.027428,33.0410272 55.6502281,33.0014272 56.2610281,33.0146272 C57.9566281,33.0530272 59.6990282,33.2018272 61.2590283,34.1522272 C63.8126284,35.7062273 64.4066284,39.5378274 62.3942283,41.6702275 C61.9358283,42.1586275 61.6310283,42.2582275 61.2698283,41.5586275 C59.6546282,38.4218274 57.4442281,35.8898273 54.630228,33.7574272 C54.555828,33.7010272 54.248628,33.5234272 54.390228,33.3902272" id="Fill-1108" fill="#EF002D"></path>
                <path d="M54.142668,30.097907 C54.770268,30.4627071 55.391868,30.5203071 56.0026681,30.5239071 C57.6994681,30.5299071 59.4442682,30.427907 61.0294683,29.520707 C63.6238684,28.033907 64.3198684,24.2203068 62.3650683,22.0327067 C61.9186683,21.5347067 61.6162683,21.4255067 61.2382683,22.1155067 C59.5390682,25.2091068 57.2626681,27.6811069 54.392268,29.736707 C54.316668,29.790707 54.005868,29.961107 54.142668,30.097907" id="Fill-1110" fill="#EF002D"></path>
                <path d="M49.0538278,47.3227077 C49.2458278,48.0235077 49.6502278,48.4999078 50.0834278,48.9295078 C51.2906279,50.1211078 52.6082279,51.2707079 54.375828,51.7327079 C57.2666281,52.4887079 60.4346282,50.2543078 60.5702282,47.3239077 C60.6014282,46.6543077 60.4622282,46.3663077 59.7098282,46.5931077 C56.3294281,47.6119077 52.9742279,47.7823077 49.4846278,47.2387077 C49.3934278,47.2243077 49.0526278,47.1283077 49.0538278,47.3227077" id="Fill-1112" fill="#EF002D"></path>
                <path d="M48.9421078,16.3987065 C49.1233078,15.6955065 49.5193078,15.2119064 49.9477078,14.7775064 C51.1357079,13.5679064 52.4365079,12.3979063 54.196908,11.9107063 C57.0781081,11.1103062 60.2785082,13.2991064 60.4573082,16.2259065 C60.4993082,16.8943065 60.3625082,17.1847065 59.6077082,16.9699065 C56.2129081,16.0015065 52.8553079,15.8815065 49.3741078,16.4755065 C49.2829078,16.4911065 48.9433078,16.5931065 48.9421078,16.3987065" id="Fill-1114" fill="#EF002D"></path>
                <path d="M36.9248273,41.5562275 C34.6784272,39.4226274 33.4400272,36.7526273 32.7932271,33.7718272 C32.6192271,32.9702272 32.7272271,32.6714271 33.7328272,32.8622271 C39.8024274,34.0154272 44.5604276,38.7338274 45.6128277,44.7674276 C45.8000277,45.8426277 45.7400277,45.9158277 44.6972276,45.6950277 C41.7104275,45.0626276 39.0536274,43.8026276 36.9248273,41.5562275" id="Fill-1116" fill="#FAB521"></path>
                <path d="M26.6749069,22.0436267 C28.921307,24.1772268 30.159707,26.8472269 30.8065071,29.828027 C30.9805071,30.6296271 30.8725071,30.9284271 29.866907,30.7376271 C23.7973068,29.584427 19.0393066,24.8660268 17.9857066,18.8324266 C17.7997065,17.7572265 17.8597065,17.6840265 18.9025066,17.9048266 C21.8893067,18.5372266 24.5461068,19.7972266 26.6749069,22.0436267" id="Fill-1118" fill="#FAB521"></path>
            </g>
        </g>
    </g>
</svg>