<?xml version="1.0" encoding="UTF-8"?>
<svg width="23px" height="22px" viewBox="0 0 23 22" version="1.1" xmlns="http://www.w3.org/2000/svg" xmlns:xlink="http://www.w3.org/1999/xlink">
    <!-- Generator: Sketch 47.1 (45422) - http://www.bohemiancoding.com/sketch -->
    <title>Artboard</title>
    <desc>Created with Sketch.</desc>
    <defs></defs>
    <g id="Page-1" stroke="none" stroke-width="1" fill="none" fill-rule="evenodd">
        <g id="Artboard" fill-rule="nonzero" fill="#000000">
            <g id="user-logged" transform="translate(2.000000, 2.000000)">
                <g id="User">
                    <path d="M17.4513026,17 C17.0720429,14.54456 15.5461208,12.16032 13.3537182,10.96416 C13.6054065,10.74984 14.0727571,10.29528 14.292861,10.05048 C17.0634065,11.67336 18.8893805,14.5824 18.8893805,17.92008 L17.4513026,17.92008 L1.4380039,17.92008 L-7.4025974e-05,17.92008 C-7.4025974e-05,14.5824 1.8259,11.67336 4.56486104,10.05048 C4.78521169,10.29528 5.2839,10.78032 5.53583506,10.96416 C3.3157961,12.20184 1.7957961,14.52008 1.4380039,17 L17.4513026,17 Z M9.44465325,10.31088 C6.93615974,10.31088 4.86515974,8.32488 4.86515974,5.85648 C4.86515974,3.38832 6.93615974,1.43064 9.44465325,1.43064 C11.9531468,1.43064 14.0241468,3.41664 14.0241468,5.88504 C14.0241468,8.3532 11.9531468,10.31088 9.44465325,10.31088 L9.44465325,10.31088 Z M9.44465325,0.16008 C6.20206883,0.16008 3.55736753,2.73216 3.55736753,5.886 C3.55736753,9.04008 6.20206883,11.58144 9.44465325,11.58144 C12.6872377,11.58144 15.331939,9.04008 15.331939,5.886 C15.331939,2.73216 12.6872377,0.16008 9.44465325,0.16008 L9.44465325,0.16008 Z" id="Fill-1"></path>
                </g>
            </g>
        </g>
    </g>
</svg>